<svg width="906" height="498" viewBox="0 0 906 498" fill="none" xmlns="http://www.w3.org/2000/svg">
<g clip-path="url(#clip0_66_559)">
<rect width="906" height="498" fill="#0BE545"/>
<rect opacity="0.9" x="-113.243" y="-186.753" width="1358.98" height="747.004" rx="12" fill="#006E1B"/>
<rect opacity="0.9" x="-202.34" y="278.8" width="906.33" height="497.59" rx="12" fill="#00390A"/>
<rect opacity="0.5" x="-45.2925" y="298.805" width="724.784" height="398.389" rx="12" fill="#3C4B39"/>
<g opacity="0.5">
<path d="M770.854 457.61V434.25H778.63C780.187 434.25 781.542 434.549 782.694 435.146C783.867 435.743 784.774 436.586 785.414 437.674C786.054 438.741 786.374 439.999 786.374 441.45C786.374 442.879 786.043 444.138 785.382 445.226C784.742 446.314 783.846 447.157 782.694 447.754C781.542 448.351 780.187 448.65 778.63 448.65H774.854V457.61H770.854ZM774.854 445.034H778.63C779.739 445.034 780.625 444.714 781.286 444.074C781.969 443.413 782.31 442.538 782.31 441.45C782.31 440.341 781.969 439.466 781.286 438.826C780.625 438.186 779.739 437.866 778.63 437.866H774.854V445.034ZM788.794 457.61V434.25H802.81V437.738H792.73V443.818H801.69V447.274H792.73V454.122H802.81V457.61H788.794ZM805.869 457.61V434.25H810.765L817.261 453.13C817.197 452.447 817.122 451.647 817.037 450.73C816.973 449.791 816.92 448.842 816.877 447.882C816.834 446.901 816.813 446.047 816.813 445.322V434.25H820.461V457.61H815.565L809.133 438.73C809.176 439.349 809.229 440.095 809.293 440.97C809.357 441.845 809.41 442.741 809.453 443.658C809.496 444.575 809.517 445.418 809.517 446.186V457.61H805.869ZM823.585 457.61V434.25H827.585V443.69H830.369L834.753 434.25H839.105L833.889 445.45L839.361 457.61H834.913L830.305 447.338H827.585V457.61H823.585ZM839.86 457.61L845.748 434.25H850.9L856.82 457.61H852.724L851.444 451.946H845.236L843.956 457.61H839.86ZM845.972 448.682H850.708L849.3 442.41C849.065 441.365 848.863 440.426 848.692 439.594C848.521 438.741 848.404 438.122 848.34 437.738C848.276 438.122 848.159 438.741 847.988 439.594C847.839 440.426 847.636 441.354 847.38 442.378L845.972 448.682ZM858.632 457.61V434.25H863.528L870.024 453.13C869.96 452.447 869.885 451.647 869.8 450.73C869.736 449.791 869.682 448.842 869.64 447.882C869.597 446.901 869.576 446.047 869.576 445.322V434.25H873.224V457.61H868.328L861.896 438.73C861.938 439.349 861.992 440.095 862.056 440.97C862.12 441.845 862.173 442.741 862.216 443.658C862.258 444.575 862.28 445.418 862.28 446.186V457.61H858.632Z" fill="black"/>
</g>
</g>
<defs>
<clipPath id="clip0_66_559">
<rect width="906" height="498" fill="white"/>
</clipPath>
</defs>
</svg>
