<svg width="64" height="64" viewBox="0 0 64 64" fill="none" xmlns="http://www.w3.org/2000/svg">
<g clip-path="url(#clip0_12_2)">
<path d="M30.6667 0V24H33.3333V0H30.6667ZM28 4.32292C15.7656 6.08333 6.07812 15.7656 4.3125 28H7C8.72396 17.2396 17.2344 8.73438 28 7.01562V4.32292ZM36 4.32292V7.01562C46.7656 8.73438 55.276 17.2396 56.9948 28H59.6875C57.9219 15.7656 48.2344 6.08333 36 4.32292ZM28 17.901C23.125 19.2865 19.2865 23.1302 17.901 28H20.6927C21.9062 24.6042 24.599 21.9062 28 20.7031V17.901ZM36 17.901V20.7031C39.401 21.9062 42.0938 24.6042 43.3073 28H46.099C44.7135 23.1302 40.875 19.2865 36 17.901ZM32.0052 28C29.7969 28 28 29.7917 28 32C28 34.2083 29.7969 36 32.0052 36C34.2135 36 35.9323 34.2083 35.9323 32C35.9323 29.7917 34.2135 28 32.0052 28ZM0 30.6667V33.3333H24V30.6667H0ZM40 30.6667V33.3333H64V30.6667H40ZM4.3125 36C6.07812 48.2344 15.7656 57.9167 28 59.6823V56.9844C17.2344 55.2656 8.72396 46.7604 7.00521 36H4.3125ZM17.901 36C19.2865 40.8698 23.125 44.7135 28 46.099V43.2969C24.599 42.0938 21.9062 39.3958 20.6927 36H17.901ZM43.2969 36C42.0938 39.401 39.3958 42.0938 36 43.3073V46.099C40.8698 44.7135 44.7135 40.875 46.099 36H43.2969ZM56.9844 36C55.2656 46.7656 46.7604 55.276 36 56.9948V59.6875C48.2344 57.9219 57.9167 48.2344 59.6823 36H56.9844ZM30.6667 40V64H33.3333V40H30.6667Z" fill="#0BE545"/>
</g>
<defs>
<clipPath id="clip0_12_2">
<rect width="64" height="64" fill="white"/>
</clipPath>
</defs>
</svg>
